# xmcd
#
# Track frame offsets: 
#        150
#        8842
#        27730
#        45570
#        60570
#        76050
#        89730
#        104040
#        119082
#        132085
#        146450
#        160425
#        178867
#        191020
#
# Disc length: 3321 seconds
#
# Revision: 0
# Processed by: cddbd v1.5.2PL0 Copyright (c) Steve Scherf et al.
# Submitted via: ExactAudioCopyFreeDBPlugin 1.0
#
DISCID=c90cf70e
DTITLE=Brent Holmes - Moose Tunes for Kids
DYEAR=2000
DGENRE=Childrens
TTITLE0=There's a Chocolate Moose on the Loose
TTITLE1=A Moose in a Treehouse
TTITLE2=I Am a Very Handsome Moose
TTITLE3=The Moose in the Middle of the Road
TTITLE4=I'm a Moose With a Cowlick
TTITLE5=Hey, Mister Moose
TTITLE6=The Three Mooseketeers
TTITLE7=Moose Don't Moo
TTITLE8=I'm a Moose and I Love My Lips
TTITLE9=The Marshmallow Moose
TTITLE10=Moose Tracks
TTITLE11=Merry Christmoose Darlin'
TTITLE12=Dave Hoffner - The Happy Moose Jam
TTITLE13=Fun Facts About Moose
EXTD=
EXTT0=
EXTT1=
EXTT2=
EXTT3=
EXTT4=
EXTT5=
EXTT6=
EXTT7=
EXTT8=
EXTT9=
EXTT10=
EXTT11=
EXTT12=
EXTT13=
PLAYORDER=
